<?xml version="1.0"?>
<svg width="543.29333" height="337.41333" xmlns="http://www.w3.org/2000/svg">
<g transform="matrix(1.3333333,0,0,-1.3333333,0,337.41333) scale(0.1)">
 <path
  d="M 2468.39,0.261719 C 2009.68,7.80078 1586.25,138.719 1194.14,372.551 776.988,621.332 416.371,933.82 137.734,1335.04 83.0352,1413.81 35.8789,1497.39 10.8359,1591.4 c -29.1406,109.35 -0.6992,177.24 100.0391,228.31 107.875,54.69 225.633,79.4 342.719,103.48 628.296,129.21 1243.226,308.92 1858.806,486.69 232.14,67.03 467.72,120.65 711.93,120.69 486.29,0.08 850.69,-257.49 987.98,-724.14 C 4170.06,1270.27 4024.04,807.949 3624.54,426.238 3383.87,196.301 3086.86,75.7813 2760.78,23.3906 2664.06,7.83984 2566.78,-1.75 2468.39,0.261719"
  style="fill:#5ab934;stroke:none" />
 <g style="fill:#ffffff;stroke:none">
  <path
   d="m 1834.83,1497.97 c -37.51,0 -67.92,-30.4 -67.92,-67.91 V 994.832 c 0,-37.512 30.41,-67.922 67.92,-67.922 37.51,0 67.91,30.41 67.91,67.922 v 435.228 c 0,37.51 -30.4,67.91 -67.91,67.91" />
  <path
   d="m 1833.44,1730.84 c -42.87,0 -77.62,-34.76 -77.62,-77.63 0,-42.87 34.75,-77.62 77.62,-77.62 42.87,0 77.62,34.75 77.62,77.62 0,42.87 -34.75,77.63 -77.62,77.63" />
  <path
   d="m 1592.27,1336.27 h -196.83 c -32.14,0 -58.21,-26.07 -58.21,-58.21 0,-32.16 26.07,-58.22 58.21,-58.22 h 164.49 v -57.3 c 0,0 -25.88,-107.18 -164.49,-121.04 0,0 -221.76,-36.97 -258.73,201.44 0,0 -36.96,174.65 88.71,270.75 0,0 74.84,68.37 193.12,43.42 0,0 131.23,-38.83 134.92,-90.56 0,0 12.93,-31.4 53.59,-7.39 0,0 90.56,55.44 -9.24,153.39 0,0 -203.28,170.02 -445.39,14.78 0,0 -245.787,-145.99 -138.6,-474.95 0,0 116.43,-301.239 419.51,-221.778 0,0 83.16,20.328 118.28,75.778 0,0 9.24,9.23 18.48,-22.181 0,0 33.27,-81.32 112.74,-48.051 v 317.882 c 0,0 12.93,83.16 -90.56,82.24" />
  <path
   d="m 2395.26,1185.7 c 0,-82.2 -67.44,-148.82 -150.61,-148.82 -83.18,0 -150.62,66.62 -150.62,148.82 v 50.73 c 0,82.19 67.44,148.82 150.62,148.82 83.17,0 150.61,-66.63 150.61,-148.82 z m 114.59,306.73 c -71.14,29.57 -106.27,-36.04 -106.27,-36.04 -3.85,-9.01 -9.49,-15.72 -14.43,-20.44 -45.39,41.87 -106.43,67.58 -173.61,67.58 -140.06,0 -253.64,-111.52 -253.64,-249.09 v -84.91 c 0,-137.56 113.58,-249.081 253.64,-249.081 66.07,0 126.22,24.832 171.36,65.481 4.39,-34.828 34.06,-61.789 70.07,-61.789 39.05,0 70.7,31.648 70.7,70.691 v 288.298 c 0,1.74 -0.14,3.45 -0.27,5.15 v 141.32 c 2.78,56.38 -17.55,62.83 -17.55,62.83" />
  <path
   d="m 2984.79,1492.43 c 0,0 -157.08,48.06 -245.78,-56.37 0,0 -25.88,62.84 -78.55,62.84 0,0 -55.44,2.78 -53.59,-26.8 v -188.97 -18.94 -269.358 c 0,-39.043 31.65,-70.691 70.69,-70.691 39.03,0 70.68,31.648 70.68,70.691 v 288.298 12.48 c 0,0 25.87,80.38 114.58,84.08 0,0 104.88,8.83 110.6,-87.7 -0.37,-2.91 -0.63,-5.85 -0.63,-8.86 V 994.832 c 0,-39.043 32.47,-70.691 72.53,-70.691 40.06,0 72.54,31.648 72.54,70.691 v 288.298 c 0,1.14 -0.12,2.24 -0.17,3.37 l 0.17,0.79 c 0,0 0,160.78 -133.07,205.14" />
  <path
   d="m 3501.35,1070.15 c 0,0 -22.17,6.46 -29.56,-7.4 0,0 -11.11,-24.96 -36.98,-21.26 h -37.88 c 0,0 -39.73,-2.76 -37.89,50.83 l -0.92,176.95 V 1376 h 109.5 c 31.37,0 56.82,25.44 56.82,56.83 0,31.38 -25.45,56.83 -56.82,56.83 h -109.5 v 67.91 c 0,39.04 -31.04,70.7 -69.31,70.7 -38.26,0 -69.3,-31.66 -69.3,-70.7 v -67.91 h -34.66 c -31.37,0 -56.82,-25.45 -56.82,-56.83 0,-31.39 25.45,-56.83 56.82,-56.83 h 34.66 v -106.73 -171.41 c 0,0 -3.69,-143.239 103.5,-170.02 0,0 169.09,-42.52 206.05,66.519 0,0 12.01,62.861 -27.71,75.791" />
 </g>
</g>
</svg>