<svg version="1.2" xmlns="http://www.w3.org/2000/svg" viewBox="0 0 1586 1584" width="1586" height="1584">
	<title>OV8</title>

	<style>
		.s0 { fill: #253a7d } 
		.s1 { fill: #92c83e } 
	</style>
	<g id="Clip-Path: Clip-Path: Page 1" clip-path="url(#cp1)">
		<g id="Clip-Path: Page 1">
			<g id="Page 1">
				<path id="Path 1" fill-rule="evenodd" class="s0" d="m1583.8 735.5c16.5 259.9-80.6 444.1-206.1 588.3-122.9 144.2-302.7 241.3-543.9 259.9h-80.6c-217.7-14.2-381.1-103.6-511-219.8-127.8-117.9-231.9-318.6-241.3-550.5v-40c2.2-58.7 9.4-117.9 23.6-170 59.2-241.2 208.4-413.4 409-514.8 82.8-45 179.9-78.4 289-85 264.8-21.4 458.9 75.1 598.7 197.9 139.2 120.6 248.4 304.8 262.6 534zm-1173.9-467.7h769.3c-99.8-72.9-258.3-148.5-449.6-127.7-116.2 12.1-236.9 59.2-309.8 116.2-2.7 2.2-9.9 4.4-9.9 11.5zm111.3 841.1h-217.6c14.2-16.4 94.8-101.4 94.8-101.4h120.7v-113.5l160.6-165.6h475.9v-122.8h-710v122.8h68.5c-11.5 19.2-89.9 92.1-104.2 106.4h-77.8c0-167.8 4.9-342.7 0-505.5-49.9 52-92.1 106.3-125.6 177-61.4 120.7-94.3 304.9-44.9 461.1q-2.2 4.4-4.4 6.6l63.6 134.9c0 0 45 80.6 87.7 125 73.5 71.3 134.9 118.4 134.9 118.4 0 0 23.6-32.9 45-66.3 21.3-35.1 32.8-94.3 32.8-94.3zm-73.4-736.9c-2.2 0-2.2 4.4-2.2 6.6v118.4h710v-125zm572.4 736.9h-395.3c-2.2 0-2.2 2.2-2.2 7.1 9.3 117.9-30.7 212.8-87.7 281.3l54.3 20.8c125.5 37.9 314.7 37.9 430.9-9.3zm0-274.1h-395.3c-2.2 2.7-2.2 4.9-2.2 7.1v167.8h397.5zm345.4 271.9h-234.1v242.9c96.5-54.3 179.3-139.3 234.1-242.9zm63.6-477.5c-30.7-115.7-89.9-210-156.2-280.8 0 0 0-2.7-2.2-2.7v489.1h-139.3v172.7h283.5c35.6-113.5 42.7-259.9 14.2-378.3z"/>
				<path id="Path 2" class="s1" d="m121.6 1009.7l89.9-90 52.1 49.9 361.8-361.3 89.9 87.2-406.8 413.4h-87.7z"/>
			</g>
		</g>
	</g>
</svg>